<?xml version="1.0" encoding="UTF-8" standalone="no"?>
<!DOCTYPE svg PUBLIC "-//W3C//DTD SVG 1.1//EN"
 "http://www.w3.org/Graphics/SVG/1.1/DTD/svg11.dtd">
<!-- Generated by graphviz version 2.40.1 (20161225.0304)
 -->
<!-- Title: snakemake_dag Pages: 1 -->
<svg width="1239pt" height="276pt"
 viewBox="0.00 0.00 1239.00 276.00" xmlns="http://www.w3.org/2000/svg" xmlns:xlink="http://www.w3.org/1999/xlink">
<g id="graph0" class="graph" transform="scale(1 1) rotate(0) translate(4 272)">
<title>snakemake_dag</title>
<polygon fill="#ffffff" stroke="transparent" points="-4,4 -4,-272 1235,-272 1235,4 -4,4"/>
<!-- 1 -->
<g id="node1" class="node">
<title>1</title>
<path fill="none" stroke="#59d856" stroke-width="2" d="M118.5,-36C118.5,-36 32.5,-36 32.5,-36 26.5,-36 20.5,-30 20.5,-24 20.5,-24 20.5,-12 20.5,-12 20.5,-6 26.5,0 32.5,0 32.5,0 118.5,0 118.5,0 124.5,0 130.5,-6 130.5,-12 130.5,-12 130.5,-24 130.5,-24 130.5,-30 124.5,-36 118.5,-36"/>
<text text-anchor="middle" x="75.5" y="-15.5" font-family="sans" font-size="10.00" fill="#000000">table2asn_munged</text>
</g>
<!-- 2 -->
<g id="node2" class="node">
<title>2</title>
<path fill="none" stroke="#59d856" stroke-width="2" d="M539.5,-36C539.5,-36 453.5,-36 453.5,-36 447.5,-36 441.5,-30 441.5,-24 441.5,-24 441.5,-12 441.5,-12 441.5,-6 447.5,0 453.5,0 453.5,0 539.5,0 539.5,0 545.5,0 551.5,-6 551.5,-12 551.5,-12 551.5,-24 551.5,-24 551.5,-30 545.5,-36 539.5,-36"/>
<text text-anchor="middle" x="496.5" y="-15.5" font-family="sans" font-size="10.00" fill="#000000">table2asn_munged</text>
</g>
<!-- 3 -->
<g id="node3" class="node">
<title>3</title>
<path fill="none" stroke="#59d856" stroke-width="2" d="M958.5,-36C958.5,-36 872.5,-36 872.5,-36 866.5,-36 860.5,-30 860.5,-24 860.5,-24 860.5,-12 860.5,-12 860.5,-6 866.5,0 872.5,0 872.5,0 958.5,0 958.5,0 964.5,0 970.5,-6 970.5,-12 970.5,-12 970.5,-24 970.5,-24 970.5,-30 964.5,-36 958.5,-36"/>
<text text-anchor="middle" x="915.5" y="-15.5" font-family="sans" font-size="10.00" fill="#000000">table2asn_munged</text>
</g>
<!-- 4 -->
<g id="node4" class="node">
<title>4</title>
<path fill="none" stroke="#56d8a9" stroke-width="2" d="M95,-108C95,-108 56,-108 56,-108 50,-108 44,-102 44,-96 44,-96 44,-84 44,-84 44,-78 50,-72 56,-72 56,-72 95,-72 95,-72 101,-72 107,-78 107,-84 107,-84 107,-96 107,-96 107,-102 101,-108 95,-108"/>
<text text-anchor="middle" x="75.5" y="-87.5" font-family="sans" font-size="10.00" fill="#000000">mung_gff</text>
</g>
<!-- 4&#45;&gt;1 -->
<g id="edge1" class="edge">
<title>4&#45;&gt;1</title>
<path fill="none" stroke="#c0c0c0" stroke-width="2" d="M75.5,-71.8314C75.5,-64.131 75.5,-54.9743 75.5,-46.4166"/>
<polygon fill="#c0c0c0" stroke="#c0c0c0" stroke-width="2" points="79.0001,-46.4132 75.5,-36.4133 72.0001,-46.4133 79.0001,-46.4132"/>
</g>
<!-- 5 -->
<g id="node5" class="node">
<title>5</title>
<path fill="none" stroke="#56d8a9" stroke-width="2" d="M516,-108C516,-108 477,-108 477,-108 471,-108 465,-102 465,-96 465,-96 465,-84 465,-84 465,-78 471,-72 477,-72 477,-72 516,-72 516,-72 522,-72 528,-78 528,-84 528,-84 528,-96 528,-96 528,-102 522,-108 516,-108"/>
<text text-anchor="middle" x="496.5" y="-87.5" font-family="sans" font-size="10.00" fill="#000000">mung_gff</text>
</g>
<!-- 5&#45;&gt;2 -->
<g id="edge2" class="edge">
<title>5&#45;&gt;2</title>
<path fill="none" stroke="#c0c0c0" stroke-width="2" d="M496.5,-71.8314C496.5,-64.131 496.5,-54.9743 496.5,-46.4166"/>
<polygon fill="#c0c0c0" stroke="#c0c0c0" stroke-width="2" points="500.0001,-46.4132 496.5,-36.4133 493.0001,-46.4133 500.0001,-46.4132"/>
</g>
<!-- 6 -->
<g id="node6" class="node">
<title>6</title>
<path fill="none" stroke="#56d8a9" stroke-width="2" d="M935,-108C935,-108 896,-108 896,-108 890,-108 884,-102 884,-96 884,-96 884,-84 884,-84 884,-78 890,-72 896,-72 896,-72 935,-72 935,-72 941,-72 947,-78 947,-84 947,-84 947,-96 947,-96 947,-102 941,-108 935,-108"/>
<text text-anchor="middle" x="915.5" y="-87.5" font-family="sans" font-size="10.00" fill="#000000">mung_gff</text>
</g>
<!-- 6&#45;&gt;3 -->
<g id="edge3" class="edge">
<title>6&#45;&gt;3</title>
<path fill="none" stroke="#c0c0c0" stroke-width="2" d="M915.5,-71.8314C915.5,-64.131 915.5,-54.9743 915.5,-46.4166"/>
<polygon fill="#c0c0c0" stroke="#c0c0c0" stroke-width="2" points="919.0001,-46.4132 915.5,-36.4133 912.0001,-46.4133 919.0001,-46.4132"/>
</g>
<!-- 7 -->
<g id="node7" class="node">
<title>7</title>
<path fill="none" stroke="#d85656" stroke-width="2" d="M67,-268C67,-268 12,-268 12,-268 6,-268 0,-262 0,-256 0,-256 0,-244 0,-244 0,-238 6,-232 12,-232 12,-232 67,-232 67,-232 73,-232 79,-238 79,-244 79,-244 79,-256 79,-256 79,-262 73,-268 67,-268"/>
<text text-anchor="middle" x="39.5" y="-253" font-family="sans" font-size="10.00" fill="#000000">remove_trna</text>
<text text-anchor="middle" x="39.5" y="-242" font-family="sans" font-size="10.00" fill="#000000">spec: Vgerm</text>
</g>
<!-- 7&#45;&gt;4 -->
<g id="edge4" class="edge">
<title>7&#45;&gt;4</title>
<path fill="none" stroke="#c0c0c0" stroke-width="2" d="M30.4936,-231.692C21.1393,-210.0047 9.4279,-173.1446 21.5,-144 26.0521,-133.0103 34.046,-123.0911 42.5102,-114.8418"/>
<polygon fill="#c0c0c0" stroke="#c0c0c0" stroke-width="2" points="44.9499,-117.354 49.9948,-108.0373 40.2411,-112.1745 44.9499,-117.354"/>
</g>
<!-- 8 -->
<g id="node8" class="node">
<title>8</title>
<path fill="none" stroke="#d8ac56" stroke-width="2" d="M108,-188C108,-188 43,-188 43,-188 37,-188 31,-182 31,-176 31,-176 31,-164 31,-164 31,-158 37,-152 43,-152 43,-152 108,-152 108,-152 114,-152 120,-158 120,-164 120,-164 120,-176 120,-176 120,-182 114,-188 108,-188"/>
<text text-anchor="middle" x="75.5" y="-167.5" font-family="sans" font-size="10.00" fill="#000000">table2asn_orig</text>
</g>
<!-- 7&#45;&gt;8 -->
<g id="edge13" class="edge">
<title>7&#45;&gt;8</title>
<path fill="none" stroke="#c0c0c0" stroke-width="2" d="M47.669,-231.8468C52.2718,-221.6183 58.1118,-208.6405 63.2523,-197.217"/>
<polygon fill="#c0c0c0" stroke="#c0c0c0" stroke-width="2" points="66.4514,-198.6369 67.3634,-188.0814 60.0679,-195.7643 66.4514,-198.6369"/>
</g>
<!-- 8&#45;&gt;4 -->
<g id="edge5" class="edge">
<title>8&#45;&gt;4</title>
<path fill="none" stroke="#c0c0c0" stroke-width="2" d="M75.5,-151.8468C75.5,-141.9251 75.5,-129.4167 75.5,-118.2492"/>
<polygon fill="#c0c0c0" stroke="#c0c0c0" stroke-width="2" points="79.0001,-118.0814 75.5,-108.0814 72.0001,-118.0814 79.0001,-118.0814"/>
</g>
<!-- 9 -->
<g id="node9" class="node">
<title>9</title>
<path fill="none" stroke="#56a9d8" stroke-width="2" d="M383,-196C383,-196 150,-196 150,-196 144,-196 138,-190 138,-184 138,-184 138,-156 138,-156 138,-150 144,-144 150,-144 150,-144 383,-144 383,-144 389,-144 395,-150 395,-156 395,-156 395,-184 395,-184 395,-190 389,-196 383,-196"/>
<text text-anchor="middle" x="266.5" y="-184" font-family="sans" font-size="10.00" fill="#000000">index_fa</text>
<text text-anchor="middle" x="266.5" y="-173" font-family="sans" font-size="10.00" fill="#000000">ext: fna</text>
<text text-anchor="middle" x="266.5" y="-162" font-family="sans" font-size="10.00" fill="#000000">file: Vgerm_24_August_2020.assembly.annotated</text>
<text text-anchor="middle" x="266.5" y="-151" font-family="sans" font-size="10.00" fill="#000000">path: data/fasta</text>
</g>
<!-- 9&#45;&gt;4 -->
<g id="edge6" class="edge">
<title>9&#45;&gt;4</title>
<path fill="none" stroke="#c0c0c0" stroke-width="2" d="M204.2237,-143.9157C175.4577,-131.8671 142.0974,-117.8942 116.547,-107.1925"/>
<polygon fill="#c0c0c0" stroke="#c0c0c0" stroke-width="2" points="117.7386,-103.897 107.1628,-103.2619 115.0343,-110.3535 117.7386,-103.897"/>
</g>
<!-- 10 -->
<g id="node10" class="node">
<title>10</title>
<path fill="none" stroke="#d85656" stroke-width="2" d="M487,-268C487,-268 432,-268 432,-268 426,-268 420,-262 420,-256 420,-256 420,-244 420,-244 420,-238 426,-232 432,-232 432,-232 487,-232 487,-232 493,-232 499,-238 499,-244 499,-244 499,-256 499,-256 499,-262 493,-268 487,-268"/>
<text text-anchor="middle" x="459.5" y="-253" font-family="sans" font-size="10.00" fill="#000000">remove_trna</text>
<text text-anchor="middle" x="459.5" y="-242" font-family="sans" font-size="10.00" fill="#000000">spec: Vpens</text>
</g>
<!-- 10&#45;&gt;5 -->
<g id="edge7" class="edge">
<title>10&#45;&gt;5</title>
<path fill="none" stroke="#c0c0c0" stroke-width="2" d="M450.7679,-231.6767C441.7159,-209.9747 430.4462,-173.1005 442.5,-144 447.0521,-133.0103 455.046,-123.0911 463.5102,-114.8418"/>
<polygon fill="#c0c0c0" stroke="#c0c0c0" stroke-width="2" points="465.9499,-117.354 470.9948,-108.0373 461.2411,-112.1745 465.9499,-117.354"/>
</g>
<!-- 11 -->
<g id="node11" class="node">
<title>11</title>
<path fill="none" stroke="#d8ac56" stroke-width="2" d="M529,-188C529,-188 464,-188 464,-188 458,-188 452,-182 452,-176 452,-176 452,-164 452,-164 452,-158 458,-152 464,-152 464,-152 529,-152 529,-152 535,-152 541,-158 541,-164 541,-164 541,-176 541,-176 541,-182 535,-188 529,-188"/>
<text text-anchor="middle" x="496.5" y="-167.5" font-family="sans" font-size="10.00" fill="#000000">table2asn_orig</text>
</g>
<!-- 10&#45;&gt;11 -->
<g id="edge14" class="edge">
<title>10&#45;&gt;11</title>
<path fill="none" stroke="#c0c0c0" stroke-width="2" d="M467.8959,-231.8468C472.6266,-221.6183 478.6288,-208.6405 483.9121,-197.217"/>
<polygon fill="#c0c0c0" stroke="#c0c0c0" stroke-width="2" points="487.1162,-198.6269 488.1374,-188.0814 480.7628,-195.6884 487.1162,-198.6269"/>
</g>
<!-- 11&#45;&gt;5 -->
<g id="edge8" class="edge">
<title>11&#45;&gt;5</title>
<path fill="none" stroke="#c0c0c0" stroke-width="2" d="M496.5,-151.8468C496.5,-141.9251 496.5,-129.4167 496.5,-118.2492"/>
<polygon fill="#c0c0c0" stroke="#c0c0c0" stroke-width="2" points="500.0001,-118.0814 496.5,-108.0814 493.0001,-118.0814 500.0001,-118.0814"/>
</g>
<!-- 12 -->
<g id="node12" class="node">
<title>12</title>
<path fill="none" stroke="#56a9d8" stroke-width="2" d="M802,-196C802,-196 571,-196 571,-196 565,-196 559,-190 559,-184 559,-184 559,-156 559,-156 559,-150 565,-144 571,-144 571,-144 802,-144 802,-144 808,-144 814,-150 814,-156 814,-156 814,-184 814,-184 814,-190 808,-196 802,-196"/>
<text text-anchor="middle" x="686.5" y="-184" font-family="sans" font-size="10.00" fill="#000000">index_fa</text>
<text text-anchor="middle" x="686.5" y="-173" font-family="sans" font-size="10.00" fill="#000000">ext: fna</text>
<text text-anchor="middle" x="686.5" y="-162" font-family="sans" font-size="10.00" fill="#000000">file: Vpens_24_August_2020.assembly.annotated</text>
<text text-anchor="middle" x="686.5" y="-151" font-family="sans" font-size="10.00" fill="#000000">path: data/fasta</text>
</g>
<!-- 12&#45;&gt;5 -->
<g id="edge9" class="edge">
<title>12&#45;&gt;5</title>
<path fill="none" stroke="#c0c0c0" stroke-width="2" d="M624.5498,-143.9157C596.0304,-131.9075 562.9714,-117.9879 537.5882,-107.3003"/>
<polygon fill="#c0c0c0" stroke="#c0c0c0" stroke-width="2" points="538.8358,-104.028 528.2612,-103.3731 536.1193,-110.4795 538.8358,-104.028"/>
</g>
<!-- 13 -->
<g id="node13" class="node">
<title>13</title>
<path fill="none" stroke="#d85656" stroke-width="2" d="M906,-268C906,-268 851,-268 851,-268 845,-268 839,-262 839,-256 839,-256 839,-244 839,-244 839,-238 845,-232 851,-232 851,-232 906,-232 906,-232 912,-232 918,-238 918,-244 918,-244 918,-256 918,-256 918,-262 912,-268 906,-268"/>
<text text-anchor="middle" x="878.5" y="-253" font-family="sans" font-size="10.00" fill="#000000">remove_trna</text>
<text text-anchor="middle" x="878.5" y="-242" font-family="sans" font-size="10.00" fill="#000000">spec: Vvulg</text>
</g>
<!-- 13&#45;&gt;6 -->
<g id="edge10" class="edge">
<title>13&#45;&gt;6</title>
<path fill="none" stroke="#c0c0c0" stroke-width="2" d="M870.0889,-231.6816C861.3842,-209.9844 850.5994,-173.1147 862.5,-144 866.9592,-133.0907 874.8025,-123.1954 883.1103,-114.9434"/>
<polygon fill="#c0c0c0" stroke="#c0c0c0" stroke-width="2" points="885.5045,-117.4965 890.4572,-108.1305 880.7448,-112.3637 885.5045,-117.4965"/>
</g>
<!-- 14 -->
<g id="node14" class="node">
<title>14</title>
<path fill="none" stroke="#d8ac56" stroke-width="2" d="M948,-188C948,-188 883,-188 883,-188 877,-188 871,-182 871,-176 871,-176 871,-164 871,-164 871,-158 877,-152 883,-152 883,-152 948,-152 948,-152 954,-152 960,-158 960,-164 960,-164 960,-176 960,-176 960,-182 954,-188 948,-188"/>
<text text-anchor="middle" x="915.5" y="-167.5" font-family="sans" font-size="10.00" fill="#000000">table2asn_orig</text>
</g>
<!-- 13&#45;&gt;14 -->
<g id="edge15" class="edge">
<title>13&#45;&gt;14</title>
<path fill="none" stroke="#c0c0c0" stroke-width="2" d="M886.8959,-231.8468C891.6266,-221.6183 897.6288,-208.6405 902.9121,-197.217"/>
<polygon fill="#c0c0c0" stroke="#c0c0c0" stroke-width="2" points="906.1162,-198.6269 907.1374,-188.0814 899.7628,-195.6884 906.1162,-198.6269"/>
</g>
<!-- 14&#45;&gt;6 -->
<g id="edge11" class="edge">
<title>14&#45;&gt;6</title>
<path fill="none" stroke="#c0c0c0" stroke-width="2" d="M915.5,-151.8468C915.5,-141.9251 915.5,-129.4167 915.5,-118.2492"/>
<polygon fill="#c0c0c0" stroke="#c0c0c0" stroke-width="2" points="919.0001,-118.0814 915.5,-108.0814 912.0001,-118.0814 919.0001,-118.0814"/>
</g>
<!-- 15 -->
<g id="node15" class="node">
<title>15</title>
<path fill="none" stroke="#56a9d8" stroke-width="2" d="M1219,-196C1219,-196 990,-196 990,-196 984,-196 978,-190 978,-184 978,-184 978,-156 978,-156 978,-150 984,-144 990,-144 990,-144 1219,-144 1219,-144 1225,-144 1231,-150 1231,-156 1231,-156 1231,-184 1231,-184 1231,-190 1225,-196 1219,-196"/>
<text text-anchor="middle" x="1104.5" y="-184" font-family="sans" font-size="10.00" fill="#000000">index_fa</text>
<text text-anchor="middle" x="1104.5" y="-173" font-family="sans" font-size="10.00" fill="#000000">ext: fna</text>
<text text-anchor="middle" x="1104.5" y="-162" font-family="sans" font-size="10.00" fill="#000000">file: Vvulg_24_August_2020.assembly.annotated</text>
<text text-anchor="middle" x="1104.5" y="-151" font-family="sans" font-size="10.00" fill="#000000">path: data/fasta</text>
</g>
<!-- 15&#45;&gt;6 -->
<g id="edge12" class="edge">
<title>15&#45;&gt;6</title>
<path fill="none" stroke="#c0c0c0" stroke-width="2" d="M1042.8759,-143.9157C1014.5066,-131.9075 981.6215,-117.9879 956.372,-107.3003"/>
<polygon fill="#c0c0c0" stroke="#c0c0c0" stroke-width="2" points="957.6673,-104.048 947.094,-103.3731 954.9387,-110.4943 957.6673,-104.048"/>
</g>
</g>
</svg>
